<?xml version="1.0" encoding="UTF-8" standalone="no"?>
<!DOCTYPE svg PUBLIC "-//W3C//DTD SVG 1.1//EN" "http://www.w3.org/Graphics/SVG/1.1/DTD/svg11.dtd">
<svg width="100%" height="100%" viewBox="0 0 2560 2560" version="1.1" xmlns="http://www.w3.org/2000/svg" xmlns:xlink="http://www.w3.org/1999/xlink" xml:space="preserve" xmlns:serif="http://www.serif.com/" style="fill-rule:evenodd;clip-rule:evenodd;stroke-linecap:square;stroke-miterlimit:1.5;">
    <g transform="matrix(2.66667,0,0,2.66667,0,0)">
        <g transform="matrix(0.64,0,0,0.64,0,0)">
            <g transform="matrix(1.02853,0,0,1.1209,2.72954,-160.236)">
                <path d="M1182.29,341.769C1182.29,305.898 1149.23,276.775 1108.51,276.775L344.578,276.775C303.856,276.775 270.796,305.898 270.796,341.769L270.796,1282.35C270.796,1318.22 303.856,1347.35 344.578,1347.35L1108.51,1347.35C1149.23,1347.35 1182.29,1318.22 1182.29,1282.35L1182.29,341.769Z" style="fill:rgb(255,186,8);fill-opacity:0;stroke:rgb(255,186,8);stroke-width:78.9px;"/>
            </g>
            <g transform="matrix(0.75335,0,0,1,188.603,1038.89)">
                <path d="M382.239,311.116L1108.16,311.116" style="fill:none;stroke:rgb(255,186,8);stroke-width:88.1px;stroke-linecap:round;"/>
            </g>
            <g transform="matrix(0.75335,0,0,1,188.603,838.891)">
                <path d="M382.239,311.116L1108.16,311.116" style="fill:none;stroke:rgb(255,186,8);stroke-width:88.1px;stroke-linecap:round;"/>
            </g>
            <g transform="matrix(0.75335,0,0,1,188.603,638.89)">
                <path d="M382.239,311.116L1108.16,311.116" style="fill:none;stroke:rgb(255,186,8);stroke-width:88.1px;stroke-linecap:round;"/>
            </g>
            <g transform="matrix(0.75335,0,0,1,188.603,438.889)">
                <path d="M382.239,311.116L1108.16,311.116" style="fill:none;stroke:rgb(255,186,8);stroke-width:88.1px;stroke-linecap:round;"/>
            </g>
            <g transform="matrix(0.75335,0,0,1,188.603,238.888)">
                <path d="M382.239,311.116L1108.16,311.116" style="fill:none;stroke:rgb(255,186,8);stroke-width:88.1px;stroke-linecap:round;"/>
            </g>
            <g transform="matrix(0.75335,0,0,1,188.603,38.8864)">
                <path d="M382.239,311.116L1108.16,311.116" style="fill:none;stroke:rgb(255,186,8);stroke-width:88.1px;stroke-linecap:round;"/>
            </g>
            <g transform="matrix(0.75335,0,0,1,188.606,-161.115)">
                <path d="M382.239,311.116L1108.16,311.116" style="fill:none;stroke:rgb(255,186,8);stroke-width:88.1px;stroke-linecap:round;"/>
            </g>
        </g>
    </g>
</svg>
