<?xml version="1.0" encoding="UTF-8" standalone="no"?>
<!DOCTYPE svg PUBLIC "-//W3C//DTD SVG 1.1//EN" "http://www.w3.org/Graphics/SVG/1.1/DTD/svg11.dtd">
<svg width="100%" height="100%" viewBox="0 0 960 960" version="1.1" xmlns="http://www.w3.org/2000/svg" xmlns:xlink="http://www.w3.org/1999/xlink" xml:space="preserve" xmlns:serif="http://www.serif.com/" style="fill-rule:evenodd;clip-rule:evenodd;stroke-linecap:round;stroke-linejoin:round;stroke-miterlimit:1.5;">
    <g transform="matrix(2.66667,0,0,2.66667,0,0)">
        <g transform="matrix(1,0,0,1,5.46088,-9.16181)">
            <path d="M104.771,81.652L160.312,44.685L262.007,74.53L298.983,119.7L297.544,171.674L313.965,227.186L306.471,307.383L288.795,331.858L239.621,333.638L163.265,322.236L74.886,316.411L35.113,265.405L35.666,171.91L84.966,128.965L104.771,81.652Z" style="fill:none;stroke:rgb(255,186,8);stroke-width:16px;"/>
            <path d="M152.608,108.539L214.306,126.491" style="fill:none;stroke:rgb(255,186,8);stroke-width:16px;"/>
            <path d="M132.382,172.465L116.937,239.01" style="fill:none;stroke:rgb(255,186,8);stroke-width:16px;"/>
            <g transform="matrix(1,0,0,1,23.7351,33.2722)">
                <path d="M190.571,215.066L243.444,172.465" style="fill:none;stroke:rgb(255,186,8);stroke-width:16px;"/>
            </g>
        </g>
    </g>
</svg>
